<?xml version="1.0" encoding="UTF-8"?>
<svg xmlns="http://www.w3.org/2000/svg" width="1440" height="1100" viewBox="0 0 1440 1100" font-family="Inter, system-ui, sans-serif">

  <g id="Background">
    <rect x="0" y="0" width="1440" height="1100" fill="#ffffff"/>
  </g>

  <g id="Header">
    <rect x="0" y="0" width="1440" height="64" fill="#ffffff"/>
    <line x1="0" y1="64" x2="1440" y2="64" stroke="#e5e7eb" stroke-width="1"/>
    <text x="24" y="28" font-size="18" font-weight="700" fill="#111827">strategy-referee</text>
    <text x="24" y="48" font-size="12" fill="#6b7280">Anti-hype crypto strategy evaluator — built for BNB HACK</text>
    <text x="1240" y="40" font-size="13" fill="#6b7280">About</text>
    <text x="1308" y="40" font-size="13" fill="#6b7280">GitHub</text>
    <text x="1380" y="40" font-size="13" fill="#6b7280">Spec ↗</text>
  </g>

  <g id="ModeBar">
    <rect x="0" y="64" width="1440" height="64" fill="#f9fafb"/>
    <line x1="0" y1="128" x2="1440" y2="128" stroke="#e5e7eb" stroke-width="1"/>
    <text x="24" y="102" font-size="13" font-weight="600" fill="#111827">Mode</text>
    <rect x="76" y="84" width="130" height="32" rx="6" fill="#ffffff" stroke="#d1d5db" stroke-width="1"/>
    <text x="141" y="105" font-size="13" font-weight="500" fill="#6b7280" text-anchor="middle">Single token</text>
    <rect x="214" y="84" width="100" height="32" rx="6" fill="#111827"/>
    <text x="264" y="105" font-size="13" font-weight="500" fill="#ffffff" text-anchor="middle">Watchlist</text>
    <text x="370" y="102" font-size="13" font-weight="600" fill="#111827">As of</text>
    <rect x="424" y="84" width="160" height="32" rx="6" fill="#ffffff" stroke="#d1d5db" stroke-width="1"/>
    <text x="438" y="105" font-size="13" fill="#111827">2025-09-25</text>
    <text x="572" y="105" font-size="13" fill="#6b7280">▼</text>
  </g>

  <g id="InputSection">
    <text x="24" y="170" font-size="13" font-weight="600" fill="#111827">Tokens</text>
    <rect x="84" y="152" width="640" height="40" rx="6" fill="#ffffff" stroke="#d1d5db" stroke-width="1"/>
    <text x="100" y="178" font-size="14" fill="#111827" font-family="JetBrains Mono, monospace">BTC, ETH, SOL, LINK, ADA, DOGE</text>
    <rect x="740" y="152" width="100" height="40" rx="6" fill="#111827"/>
    <text x="790" y="178" font-size="14" font-weight="500" fill="#ffffff" text-anchor="middle">Scan</text>
    <text x="24" y="232" font-size="12" fill="#6b7280">Presets:</text>
    <rect x="84" y="216" width="160" height="28" rx="14" fill="#ffffff" stroke="#d1d5db" stroke-width="1"/>
    <text x="164" y="234" font-size="12" fill="#111827" text-anchor="middle">Today's top 20</text>
    <rect x="258" y="216" width="160" height="28" rx="14" fill="#ffffff" stroke="#d1d5db" stroke-width="1"/>
    <text x="338" y="234" font-size="12" fill="#111827" text-anchor="middle">Crypto majors</text>
    <rect x="432" y="216" width="180" height="28" rx="14" fill="#ffffff" stroke="#d1d5db" stroke-width="1"/>
    <text x="522" y="234" font-size="12" fill="#111827" text-anchor="middle">BNB Chain ecosystem</text>
  </g>

  <g id="ResultHeader">
    <text x="24" y="296" font-size="16" font-weight="700" fill="#111827">Scan as of 2025-09-25 — 6 tokens</text>
    <rect x="324" y="276" width="80" height="22" rx="11" fill="#d1fae5"/>
    <text x="364" y="291" font-size="11" font-weight="700" fill="#065f46" text-anchor="middle">3 PASS</text>
    <rect x="412" y="276" width="86" height="22" rx="11" fill="#fef3c7"/>
    <text x="455" y="291" font-size="11" font-weight="700" fill="#92400e" text-anchor="middle">3 WATCH</text>
    <rect x="506" y="276" width="92" height="22" rx="11" fill="#fee2e2"/>
    <text x="552" y="291" font-size="11" font-weight="700" fill="#991b1b" text-anchor="middle">0 REJECT</text>
  </g>

  <g id="ResultsTable">
    <rect x="24" y="320" width="1392" height="540" rx="12" fill="#ffffff" stroke="#e5e7eb" stroke-width="1"/>

    <g id="TableHeader">
      <rect x="24" y="320" width="1392" height="44" rx="12" fill="#f9fafb"/>
      <rect x="24" y="352" width="1392" height="12" fill="#f9fafb"/>
      <line x1="24" y1="364" x2="1416" y2="364" stroke="#e5e7eb" stroke-width="1"/>
      <text x="48" y="348" font-size="11" font-weight="700" fill="#6b7280" letter-spacing="1">VERDICT</text>
      <text x="172" y="348" font-size="11" font-weight="700" fill="#6b7280" letter-spacing="1">SYMBOL</text>
      <text x="288" y="348" font-size="11" font-weight="700" fill="#6b7280" letter-spacing="1">Δ TO SMA200</text>
      <text x="448" y="348" font-size="11" font-weight="700" fill="#6b7280" letter-spacing="1">RSI(14)</text>
      <text x="568" y="348" font-size="11" font-weight="700" fill="#6b7280" letter-spacing="1">MFI(14)</text>
      <text x="688" y="348" font-size="11" font-weight="700" fill="#6b7280" letter-spacing="1">SPEC</text>
      <text x="800" y="348" font-size="11" font-weight="700" fill="#6b7280" letter-spacing="1">DETAIL</text>
      <text x="1320" y="348" font-size="11" font-weight="700" fill="#6b7280" letter-spacing="1">ACTION</text>
    </g>

    <g id="row_LINK">
      <rect x="40" y="380" width="60" height="24" rx="12" fill="#10b981"/>
      <text x="70" y="396" font-size="11" font-weight="700" fill="#ffffff" text-anchor="middle">PASS</text>
      <text x="172" y="397" font-size="14" font-weight="700" fill="#111827" font-family="JetBrains Mono, monospace">LINK</text>
      <text x="288" y="397" font-size="13" fill="#10b981" font-family="JetBrains Mono, monospace">+19.75%</text>
      <text x="448" y="397" font-size="13" fill="#10b981" font-family="JetBrains Mono, monospace">23.39</text>
      <text x="568" y="397" font-size="13" fill="#111827" font-family="JetBrains Mono, monospace">36.12</text>
      <rect x="680" y="382" width="48" height="22" rx="4" fill="#ecfdf5" stroke="#10b981" stroke-width="1"/>
      <text x="704" y="397" font-size="10" font-weight="700" fill="#065f46" text-anchor="middle">YES</text>
      <text x="800" y="397" font-size="13" fill="#6b7280">survivor-family match (rsi_oversold)</text>
      <text x="1320" y="397" font-size="12" fill="#1f2937" text-decoration="underline">Drill in →</text>
      <line x1="24" y1="418" x2="1416" y2="418" stroke="#f3f4f6" stroke-width="1"/>
    </g>

    <g id="row_ETH">
      <rect x="40" y="434" width="60" height="24" rx="12" fill="#10b981"/>
      <text x="70" y="450" font-size="11" font-weight="700" fill="#ffffff" text-anchor="middle">PASS</text>
      <text x="172" y="451" font-size="14" font-weight="700" fill="#111827" font-family="JetBrains Mono, monospace">ETH</text>
      <text x="288" y="451" font-size="13" fill="#10b981" font-family="JetBrains Mono, monospace">+32.63%</text>
      <text x="448" y="451" font-size="13" fill="#10b981" font-family="JetBrains Mono, monospace">27.21</text>
      <text x="568" y="451" font-size="13" fill="#111827" font-family="JetBrains Mono, monospace">32.83</text>
      <rect x="680" y="436" width="48" height="22" rx="4" fill="#ecfdf5" stroke="#10b981" stroke-width="1"/>
      <text x="704" y="451" font-size="10" font-weight="700" fill="#065f46" text-anchor="middle">YES</text>
      <text x="800" y="451" font-size="13" fill="#6b7280">survivor-family match (rsi_oversold)</text>
      <text x="1320" y="451" font-size="12" fill="#1f2937" text-decoration="underline">Drill in →</text>
      <line x1="24" y1="472" x2="1416" y2="472" stroke="#f3f4f6" stroke-width="1"/>
    </g>

    <g id="row_SOL">
      <rect x="40" y="488" width="60" height="24" rx="12" fill="#10b981"/>
      <text x="70" y="504" font-size="11" font-weight="700" fill="#ffffff" text-anchor="middle">PASS</text>
      <text x="172" y="505" font-size="14" font-weight="700" fill="#111827" font-family="JetBrains Mono, monospace">SOL</text>
      <text x="288" y="505" font-size="13" fill="#10b981" font-family="JetBrains Mono, monospace">+16.75%</text>
      <text x="448" y="505" font-size="13" fill="#10b981" font-family="JetBrains Mono, monospace">30.37</text>
      <text x="568" y="505" font-size="13" fill="#111827" font-family="JetBrains Mono, monospace">40.20</text>
      <rect x="680" y="490" width="48" height="22" rx="4" fill="#ecfdf5" stroke="#10b981" stroke-width="1"/>
      <text x="704" y="505" font-size="10" font-weight="700" fill="#065f46" text-anchor="middle">YES</text>
      <text x="800" y="505" font-size="13" fill="#6b7280">survivor-family match (rsi_oversold)</text>
      <text x="1320" y="505" font-size="12" fill="#1f2937" text-decoration="underline">Drill in →</text>
      <line x1="24" y1="526" x2="1416" y2="526" stroke="#f3f4f6" stroke-width="1"/>
    </g>

    <g id="row_BTC">
      <rect x="40" y="542" width="60" height="24" rx="12" fill="#f59e0b"/>
      <text x="70" y="558" font-size="11" font-weight="700" fill="#ffffff" text-anchor="middle">WATCH</text>
      <text x="172" y="559" font-size="14" font-weight="700" fill="#111827" font-family="JetBrains Mono, monospace">BTC</text>
      <text x="288" y="559" font-size="13" fill="#f59e0b" font-family="JetBrains Mono, monospace">+4.84%</text>
      <text x="448" y="559" font-size="13" fill="#10b981" font-family="JetBrains Mono, monospace">27.77</text>
      <text x="568" y="559" font-size="13" fill="#111827" font-family="JetBrains Mono, monospace">44.53</text>
      <rect x="680" y="544" width="48" height="22" rx="4" fill="#fef3c7" stroke="#f59e0b" stroke-width="1"/>
      <text x="704" y="559" font-size="10" font-weight="700" fill="#92400e" text-anchor="middle">YES</text>
      <text x="800" y="559" font-size="13" fill="#6b7280">oversold-confirmed but sma_distance &lt; 5% — elevated risk</text>
      <text x="1320" y="559" font-size="12" fill="#1f2937" text-decoration="underline">Drill in →</text>
      <line x1="24" y1="580" x2="1416" y2="580" stroke="#f3f4f6" stroke-width="1"/>
    </g>

    <g id="row_ADA">
      <rect x="40" y="596" width="60" height="24" rx="12" fill="#f59e0b"/>
      <text x="70" y="612" font-size="11" font-weight="700" fill="#ffffff" text-anchor="middle">WATCH</text>
      <text x="172" y="613" font-size="14" font-weight="700" fill="#111827" font-family="JetBrains Mono, monospace">ADA</text>
      <text x="288" y="613" font-size="13" fill="#f59e0b" font-family="JetBrains Mono, monospace">+3.85%</text>
      <text x="448" y="613" font-size="13" fill="#10b981" font-family="JetBrains Mono, monospace">30.88</text>
      <text x="568" y="613" font-size="13" fill="#111827" font-family="JetBrains Mono, monospace">33.56</text>
      <rect x="680" y="598" width="48" height="22" rx="4" fill="#fef3c7" stroke="#f59e0b" stroke-width="1"/>
      <text x="704" y="613" font-size="10" font-weight="700" fill="#92400e" text-anchor="middle">YES</text>
      <text x="800" y="613" font-size="13" fill="#6b7280">oversold-confirmed but sma_distance &lt; 5% — elevated risk</text>
      <text x="1320" y="613" font-size="12" fill="#1f2937" text-decoration="underline">Drill in →</text>
      <line x1="24" y1="634" x2="1416" y2="634" stroke="#f3f4f6" stroke-width="1"/>
    </g>

    <g id="row_DOGE">
      <rect x="40" y="650" width="60" height="24" rx="12" fill="#f59e0b"/>
      <text x="70" y="666" font-size="11" font-weight="700" fill="#ffffff" text-anchor="middle">WATCH</text>
      <text x="172" y="667" font-size="14" font-weight="700" fill="#111827" font-family="JetBrains Mono, monospace">DOGE</text>
      <text x="288" y="667" font-size="13" fill="#f59e0b" font-family="JetBrains Mono, monospace">+11.21%</text>
      <text x="448" y="667" font-size="13" fill="#111827" font-family="JetBrains Mono, monospace">38.36</text>
      <text x="568" y="667" font-size="13" fill="#111827" font-family="JetBrains Mono, monospace">41.62</text>
      <text x="704" y="667" font-size="11" fill="#9ca3af" text-anchor="middle">—</text>
      <text x="800" y="667" font-size="13" fill="#6b7280">near-trigger (no oversold confirmation; no spec emitted)</text>
      <text x="1320" y="667" font-size="12" fill="#1f2937" text-decoration="underline">Drill in →</text>
    </g>
  </g>

  <g id="NextStepHint">
    <rect x="24" y="892" width="1392" height="100" rx="8" fill="#f9fafb" stroke="#e5e7eb" stroke-width="1"/>
    <text x="48" y="920" font-size="13" font-weight="700" fill="#111827">Next step</text>
    <text x="48" y="942" font-size="12" fill="#6b7280">Click any row above, or run the CLI:</text>
    <rect x="48" y="954" width="540" height="28" rx="4" fill="#111827"/>
    <text x="64" y="972" font-size="12" font-family="JetBrains Mono, monospace" fill="#ffffff">node src/index.js --token ETH --at-date 2025-09-25</text>
    <text x="606" y="972" font-size="12" fill="#6b7280">↑ shows full detail + spec + backtest + forward-look</text>
  </g>

  <g id="Footer">
    <line x1="0" y1="1052" x2="1440" y2="1052" stroke="#e5e7eb" stroke-width="1"/>
    <text x="24" y="1078" font-size="12" fill="#6b7280">Methodology: 21 archetypes audited, 2 walk-forward survivors. Source: bradyhouse/sigma-swing-agent docs/cmc_evidence_table.md</text>
  </g>

</svg>
